<svg preserveAspectRatio="none" width="100%" height="100%" overflow="visible" style="display: block;" viewBox="0 0 36 36" fill="none" xmlns="http://www.w3.org/2000/svg">
<g id="Frame">
<path id="Vector" d="M16.0387 17.2504H19.9619V6.28877C19.9619 5.74852 19.77 5.28652 19.3863 4.90277C19.0028 4.51902 18.5408 4.32715 18.0003 4.32715C17.4598 4.32715 16.9978 4.51902 16.6143 4.90277C16.2305 5.28652 16.0387 5.74852 16.0387 6.28877V17.2504ZM7.32703 22.6736H28.6735V19.6736C28.6735 19.4044 28.5869 19.1831 28.4137 19.0099C28.2407 18.8369 28.0195 18.7504 27.7503 18.7504H8.25028C7.98103 18.7504 7.7599 18.8369 7.5869 19.0099C7.41365 19.1831 7.32703 19.4044 7.32703 19.6736V22.6736ZM6.13303 31.6736H10.0387V27.9236C10.0387 27.7101 10.1103 27.5318 10.2535 27.3885C10.3968 27.2453 10.5752 27.1736 10.7887 27.1736C11.0022 27.1736 11.1805 27.2453 11.3238 27.3885C11.467 27.5318 11.5387 27.7101 11.5387 27.9236V31.6736H17.2503V27.9236C17.2503 27.7101 17.3219 27.5318 17.4652 27.3885C17.6084 27.2453 17.7868 27.1736 18.0003 27.1736C18.2138 27.1736 18.3922 27.2453 18.5354 27.3885C18.6787 27.5318 18.7503 27.7101 18.7503 27.9236V31.6736H24.4619V27.9236C24.4619 27.7101 24.5335 27.5318 24.6768 27.3885C24.82 27.2453 24.9984 27.1736 25.2119 27.1736C25.4254 27.1736 25.6038 27.2453 25.747 27.3885C25.8903 27.5318 25.9619 27.7101 25.9619 27.9236V31.6736H29.8675C30.1753 31.6736 30.4253 31.5534 30.6175 31.3129C30.8098 31.0724 30.8579 30.808 30.7619 30.5198L28.9158 24.1736H7.08478L5.23865 30.5198C5.14265 30.808 5.19078 31.0724 5.38303 31.3129C5.57528 31.5534 5.82528 31.6736 6.13303 31.6736ZM30.0985 33.1736H5.90203C5.17703 33.1736 4.5819 32.8823 4.11665 32.2995C3.65115 31.7168 3.52428 31.0658 3.73603 30.3465L5.82703 23.1638V19.5004C5.82703 18.8676 6.0439 18.3345 6.47765 17.901C6.9114 17.4673 7.44453 17.2504 8.07703 17.2504H14.5387V6.28877C14.5387 5.32727 14.8753 4.51002 15.5485 3.83702C16.2215 3.16377 17.0388 2.82715 18.0003 2.82715C18.9618 2.82715 19.779 3.16377 20.452 3.83702C21.1253 4.51002 21.4619 5.32727 21.4619 6.28877V17.2504H27.9235C28.556 17.2504 29.0892 17.4673 29.5229 17.901C29.9567 18.3345 30.1735 18.8676 30.1735 19.5004V23.1638L32.2645 30.4043C32.4935 31.1043 32.3739 31.7408 31.9057 32.3138C31.4374 32.887 30.835 33.1736 30.0985 33.1736Z" fill="#FFFFFF"/>
</g>
</svg>
