<svg preserveAspectRatio="none" width="100%" height="100%" overflow="visible" style="display: block;" viewBox="0 0 36 36" fill="none" xmlns="http://www.w3.org/2000/svg">
<path d="M30.2503 17.2501C29.4241 17.2501 28.6404 17.5167 28.0002 18.0002V9.37506C28.0002 9.16705 27.8318 9.00006 27.6252 9.00006H19.0002C19.4836 8.35993 19.7502 7.57621 19.7502 6.75004C19.7502 4.68167 18.0685 3 16.0001 3C13.9317 3 12.2501 4.68167 12.2501 6.75004C12.2501 7.57621 12.5167 8.35993 13.0001 9.00006H4.375C4.16846 9.00006 4 9.16705 4 9.37506V18.8848C4 19.0445 4.10107 19.1865 4.25049 19.2393C4.39991 19.292 4.5669 19.2437 4.66798 19.1192C5.23634 18.4073 6.08745 18 7.00006 18C8.6539 18 10.0001 19.3462 10.0001 21C10.0001 22.6539 8.6539 24.0001 7.00006 24.0001C6.08745 24.0001 5.23638 23.5928 4.66798 22.8809C4.56837 22.7564 4.39992 22.708 4.25049 22.7608C4.09961 22.8135 4 22.9556 4 23.1153V32.625C4 32.833 4.16846 33 4.375 33H13.8847C14.0444 33 14.1865 32.8989 14.2392 32.7495C14.292 32.6001 14.2436 32.4316 14.1191 32.332C13.4072 31.7637 12.9999 30.9141 12.9999 29.9999C12.9999 28.3461 14.3461 26.9999 16 26.9999C17.6538 26.9999 19 28.3461 19 29.9999C19 30.914 18.5928 31.7636 17.8808 32.332C17.7563 32.4316 17.708 32.5986 17.7607 32.7495C17.8135 32.8989 17.9555 33 18.1152 33H27.6249C27.8315 33 27.9999 32.833 27.9999 32.625V23.9999C28.6401 24.4833 29.4238 24.7499 30.25 24.7499C32.3183 24.7499 34 23.0683 34 20.9999C34 18.9315 32.3183 17.2498 30.25 17.2498L30.2503 17.2501ZM30.2503 24.0002C29.3377 24.0002 28.4866 23.593 27.9182 22.881C27.8186 22.7565 27.6501 22.7082 27.5007 22.7609C27.3498 22.8137 27.2502 22.9558 27.2502 23.1154V32.2501H19.0001C19.4835 31.61 19.7501 30.8263 19.7501 30.0001C19.7501 27.9318 18.0685 26.2501 16.0001 26.2501C13.9317 26.2501 12.2501 27.9318 12.2501 30.0001C12.2501 30.8263 12.5167 31.61 13.0001 32.2501H4.74998V24.0001C5.39011 24.4835 6.17383 24.7501 7 24.7501C9.06837 24.7501 10.75 23.0684 10.75 21C10.75 18.9317 9.06837 17.25 7 17.25C6.17383 17.25 5.39011 17.5166 4.74998 18V9.74992H13.8847C14.0444 9.74992 14.1865 9.64884 14.2392 9.49943C14.2919 9.35001 14.2436 9.18155 14.1191 9.08193C13.4072 8.51358 12.9999 7.66397 12.9999 6.74986C12.9999 5.09602 14.3461 3.74983 15.9999 3.74983C17.6538 3.74983 19 5.09602 19 6.74986C19 7.66393 18.5928 8.51354 17.8808 9.08193C17.7563 9.18154 17.708 9.34854 17.7607 9.49943C17.8134 9.64884 17.9555 9.74992 18.1152 9.74992H27.2499V18.8846C27.2499 19.0443 27.351 19.1864 27.5004 19.2391C27.6498 19.2919 27.8183 19.2435 27.9179 19.119C28.4862 18.4071 29.3374 17.9998 30.25 17.9998C31.9038 17.9998 33.25 19.346 33.25 20.9999C33.25 22.6537 31.9038 23.9999 30.25 23.9999L30.2503 24.0002Z" fill="none" stroke="#69645E" stroke-width="1.25" stroke-linejoin="round"/>
</svg>
