<svg preserveAspectRatio="none" width="100%" height="100%" overflow="visible" style="display: block;" viewBox="0 0 36 36" fill="none" xmlns="http://www.w3.org/2000/svg">
<g id="Frame">
<path id="Vector" d="M5.32534 31.5003H9.00035V28.5003C9.00035 28.0753 9.1441 27.7191 9.4316 27.4316C9.7191 27.1441 10.0753 27.0003 10.5003 27.0003C10.9253 27.0003 11.2816 27.1441 11.5691 27.4316C11.8566 27.7191 12.0003 28.0753 12.0003 28.5003V31.5003H16.5003V28.5003C16.5003 28.0753 16.6441 27.7191 16.9316 27.4316C17.2191 27.1441 17.5753 27.0003 18.0003 27.0003C18.4253 27.0003 18.7816 27.1441 19.0691 27.4316C19.3566 27.7191 19.5003 28.0753 19.5003 28.5003V31.5003H24.0003V28.5003C24.0003 28.0753 24.1441 27.7191 24.4316 27.4316C24.7191 27.1441 25.0753 27.0003 25.5003 27.0003C25.9253 27.0003 26.2816 27.1441 26.5691 27.4316C26.8566 27.7191 27.0003 28.0753 27.0003 28.5003V31.5003H30.6753L29.1753 25.5003H6.82534L5.32534 31.5003ZM30.6753 34.5003H5.32534C4.35034 34.5003 3.56284 34.1128 2.96284 33.3378C2.36284 32.5628 2.18784 31.7003 2.43784 30.7503L4.50034 22.5003V19.5003C4.50034 18.6753 4.79409 17.9691 5.38159 17.3816C5.96909 16.7941 6.67534 16.5003 7.50035 16.5003H13.5003V6.00034C13.5003 4.75034 13.9378 3.68784 14.8128 2.81284C15.6878 1.93784 16.7503 1.50034 18.0003 1.50034C19.2503 1.50034 20.3128 1.93784 21.1878 2.81284C22.0628 3.68784 22.5003 4.75034 22.5003 6.00034V16.5003H28.5003C29.3253 16.5003 30.0316 16.7941 30.6191 17.3816C31.2066 17.9691 31.5003 18.6753 31.5003 19.5003V22.5003L33.5628 30.7503C33.8878 31.7003 33.7441 32.5628 33.1316 33.3378C32.5191 34.1128 31.7003 34.5003 30.6753 34.5003Z" fill="var(--fill-0, white)"/>
</g>
</svg>
