<svg preserveAspectRatio="none" width="100%" height="100%" overflow="visible" style="display: block;" viewBox="0 0 30.5 30.5" fill="none" xmlns="http://www.w3.org/2000/svg">
<path id="Vector" d="M26.5003 14.5001C25.6741 14.5001 24.8904 14.7667 24.2502 15.2502V6.62506C24.2502 6.41705 24.0818 6.25006 23.8752 6.25006H15.2502C15.7336 5.60993 16.0002 4.82621 16.0002 4.00004C16.0002 1.93167 14.3185 0.25 12.2501 0.25C10.1817 0.25 8.50008 1.93167 8.50008 4.00004C8.50008 4.82621 8.76669 5.60993 9.25009 6.25006H0.625004C0.418459 6.25006 0.25 6.41705 0.25 6.62506V16.1348C0.25 16.2945 0.351075 16.4365 0.500491 16.4893C0.649908 16.542 0.816901 16.4937 0.917983 16.3692C1.48634 15.6573 2.33745 15.25 3.25006 15.25C4.9039 15.25 6.25009 16.5962 6.25009 18.25C6.25009 19.9039 4.9039 21.2501 3.25006 21.2501C2.33745 21.2501 1.48638 20.8428 0.917983 20.1309C0.818374 20.0064 0.649915 19.958 0.500491 20.0108C0.349612 20.0635 0.25 20.2056 0.25 20.3653V29.875C0.25 30.083 0.418459 30.25 0.625004 30.25H10.1347C10.2944 30.25 10.4365 30.1489 10.4892 29.9995C10.542 29.8501 10.4936 29.6816 10.3691 29.582C9.65719 29.0137 9.24994 28.1641 9.24994 27.2499C9.24994 25.5961 10.5961 24.2499 12.25 24.2499C13.9038 24.2499 15.25 25.5961 15.25 27.2499C15.25 28.164 14.8428 29.0136 14.1308 29.582C14.0063 29.6816 13.958 29.8486 14.0107 29.9995C14.0635 30.1489 14.2055 30.25 14.3652 30.25H23.8749C24.0815 30.25 24.2499 30.083 24.2499 29.875V21.2499C24.8901 21.7333 25.6738 21.9999 26.5 21.9999C28.5683 21.9999 30.25 20.3183 30.25 18.2499C30.25 16.1815 28.5683 14.4998 26.5 14.4998L26.5003 14.5001ZM26.5003 21.2502C25.5877 21.2502 24.7366 20.843 24.1682 20.131C24.0686 20.0065 23.9001 19.9582 23.7507 20.0109C23.5998 20.0637 23.5002 20.2058 23.5002 20.3654V29.5001H15.2501C15.7335 28.86 16.0001 28.0763 16.0001 27.2501C16.0001 25.1818 14.3185 23.5001 12.2501 23.5001C10.1817 23.5001 8.50006 25.1818 8.50006 27.2501C8.50006 28.0763 8.76666 28.86 9.25006 29.5001H0.999981V21.2501C1.64011 21.7335 2.42383 22.0001 3.25 22.0001C5.31837 22.0001 7.00004 20.3184 7.00004 18.25C7.00004 16.1817 5.31837 14.5 3.25 14.5C2.42383 14.5 1.64011 14.7666 0.999981 15.25V6.99992H10.1347C10.2944 6.99992 10.4365 6.89884 10.4892 6.74943C10.5419 6.60001 10.4936 6.43155 10.3691 6.33193C9.65717 5.76358 9.24991 4.91397 9.24991 3.99986C9.24991 2.34602 10.5961 0.999831 12.2499 0.999831C13.9038 0.999831 15.25 2.34602 15.25 3.99986C15.25 4.91393 14.8428 5.76354 14.1308 6.33193C14.0063 6.43154 13.958 6.59854 14.0107 6.74943C14.0634 6.89884 14.2055 6.99992 14.3652 6.99992H23.4999V16.1346C23.4999 16.2943 23.601 16.4364 23.7504 16.4891C23.8998 16.5419 24.0683 16.4935 24.1679 16.369C24.7362 15.6571 25.5874 15.2498 26.5 15.2498C28.1538 15.2498 29.5 16.596 29.5 18.2499C29.5 19.9037 28.1538 21.2499 26.5 21.2499L26.5003 21.2502Z" fill="var(--fill-0, white)" stroke="var(--stroke-0, #69645E)" stroke-width="0.5"/>
</svg>
