<svg preserveAspectRatio="none" width="100%" height="100%" overflow="visible" style="display: block;" viewBox="0 0 1210 714" fill="none" xmlns="http://www.w3.org/2000/svg">
<g id="Vector">
<path d="M220 385H550.5V495H220V385Z" fill="var(--fill-0, #F4F0E5)"/>
<path d="M661 0H826V164H660L661 0Z" fill="var(--fill-0, #F4F0E5)"/>
<path d="M826 0H1044.5L1045.5 109.495H826V0Z" fill="var(--fill-0, #F4F0E5)"/>
<path d="M824.497 494.5L1101 497V714H826L824.497 494.5Z" fill="var(--fill-0, #F4F0E5)"/>
<path d="M1101 606H1210V714H1101V606Z" fill="var(--fill-0, #F4F0E5)"/>
<path d="M0 661H166V714H0V661Z" fill="var(--fill-0, #F4F0E5)"/>
<path d="M0.35404 220H165.5V440H0.35404V220Z" fill="var(--fill-0, #F4F0E5)"/>
<path d="M1100 111L1210 110.5V219.5H1100V111Z" fill="var(--fill-0, #F4F0E5)"/>
<path d="M385.5 110H220.197V55H165V0H440V55H385.5V110Z" fill="var(--fill-0, #F4F0E5)"/>
<path d="M991 385H824.497L825.993 275.249H660V165L991 164.5V385Z" fill="var(--fill-0, #F4F0E5)"/>
<path d="M110.5 550.5H275V661H110.5V550.5Z" fill="var(--fill-0, #F4F0E5)"/>
</g>
</svg>
